<?xml version="1.0" standalone="no"?>
<!DOCTYPE svg PUBLIC "-//W3C//DTD SVG 20010904//EN"
 "http://www.w3.org/TR/2001/REC-SVG-20010904/DTD/svg10.dtd">
<svg version="1.0" xmlns="http://www.w3.org/2000/svg"
 width="577.000000pt" height="577.000000pt" viewBox="0 0 577.000000 577.000000"
 preserveAspectRatio="xMidYMid meet">
<metadata>
Created by potrace 1.14, written by Peter Selinger 2001-2017
</metadata>
<g transform="translate(0.000000,577.000000) scale(0.100000,-0.100000)"
fill="#000000" stroke="none">
<path d="M2874 3642 c-56 -53 -238 -221 -288 -267 -126 -114 -195 -176 -216
-194 l-25 -21 300 -1 c165 0 425 -1 578 -2 l278 -2 -109 -105 c-60 -58 -186
-180 -281 -271 -94 -91 -173 -163 -175 -160 -1 3 -2 126 -2 272 l2 267 -75
-67 c-42 -36 -91 -79 -109 -96 -19 -16 -44 -39 -56 -50 -12 -11 -55 -49 -96
-85 -40 -36 -78 -70 -84 -75 -37 -35 -133 -115 -138 -115 -8 0 -68 49 -154
127 -43 39 -88 80 -100 90 -35 31 -213 195 -278 256 -33 32 -131 124 -216 205
-85 81 -194 187 -242 235 -60 60 -88 82 -89 70 -1 -55 8 -1630 10 -1644 1 -3
107 -5 236 -5 l235 0 1 70 c1 141 11 541 13 543 1 1 13 -8 27 -20 13 -12 42
-37 64 -56 36 -30 118 -103 239 -212 23 -20 70 -64 106 -97 109 -100 145 -132
151 -132 4 0 22 15 42 33 19 17 76 70 127 117 51 47 107 99 125 115 113 106
230 212 244 221 15 11 16 -15 19 -284 2 -163 5 -299 8 -301 3 -3 237 -6 521
-6 547 -2 570 0 713 47 170 56 297 163 401 338 47 80 71 163 90 306 20 157 16
239 -21 379 -90 338 -314 527 -680 570 -30 3 -73 9 -95 12 -54 8 -386 11 -407
4 -9 -3 -85 -72 -170 -153 -269 -257 -349 -329 -358 -323 -4 3 -6 122 -3 265
2 143 3 260 1 260 -2 0 -30 -26 -64 -58z m866 -496 c70 -3 147 -12 174 -21
113 -35 186 -102 230 -209 21 -53 24 -75 23 -161 -2 -112 -21 -162 -79 -217
-37 -35 -107 -77 -140 -84 -41 -10 -142 -19 -185 -18 -24 1 -93 2 -153 3
l-111 1 1 347 c1 192 6 353 10 359 5 5 31 9 57 8 26 -2 104 -5 173 -8z"/>
</g>
</svg>
